<svg xmlns="http://www.w3.org/2000/svg" width="17" height="17" viewBox="0 0 17 17">
  <path id="Icon_material-call" data-name="Icon material-call" d="M7.919,11.857a14.307,14.307,0,0,0,6.224,6.224L16.221,16a.939.939,0,0,1,.963-.227,10.773,10.773,0,0,0,3.372.538.947.947,0,0,1,.944.944v3.3a.947.947,0,0,1-.944.944A16.054,16.054,0,0,1,4.5,5.444.947.947,0,0,1,5.444,4.5H8.75a.947.947,0,0,1,.944.944,10.729,10.729,0,0,0,.538,3.372A.948.948,0,0,1,10,9.779L7.919,11.857Z" transform="translate(-4.5 -4.5)" fill="#525457"/>
</svg>
