<svg xmlns="http://www.w3.org/2000/svg" width="103" height="103" viewBox="0 0 103 103">
  <g id="Group_838" data-name="Group 838" transform="translate(-883 -2155)">
    <rect id="Rectangle_289" data-name="Rectangle 289" width="103" height="103" rx="8" transform="translate(883 2155)" fill="#838a96" opacity="0.16"/>
    <g id="Group_756" data-name="Group 756" transform="translate(585.997 1989.589)">
      <g id="Group_685" data-name="Group 685" transform="translate(334.534 177.53)">
        <circle id="Ellipse_65" data-name="Ellipse 65" cx="20.979" cy="20.979" r="20.979" transform="translate(0 29.668) rotate(-45)" fill="#e2f1e5"/>
      </g>
      <g id="Group_686" data-name="Group 686" transform="translate(353.251 196.247)">
        <path id="Path_218" data-name="Path 218" d="M356.749,198.867a10.951,10.951,0,1,1-10.952-10.95A10.952,10.952,0,0,1,356.749,198.867Z" transform="translate(-334.846 -187.917)" fill="#96d2a3"/>
      </g>
      <g id="Group_687" data-name="Group 687" transform="translate(361.821 204.817)">
        <path id="Path_219" data-name="Path 219" d="M341.984,197.436a2.381,2.381,0,1,1,2.379-2.38A2.384,2.384,0,0,1,341.984,197.436Zm0-2.7a.324.324,0,0,0-.324.323c0,.355.645.355.645,0A.322.322,0,0,0,341.984,194.733Z" transform="translate(-339.602 -192.673)" fill="#208e37"/>
      </g>
      <g id="Group_688" data-name="Group 688" transform="translate(357.693 184.867)">
        <path id="Path_220" data-name="Path 220" d="M352.017,224.71l-.993-2.514a19.632,19.632,0,0,0-5.716-37.836,19.886,19.886,0,0,0-7.208.791l-.789-2.586a22.341,22.341,0,0,1,28.838,21.368A22.216,22.216,0,0,1,352.017,224.71Z" transform="translate(-337.311 -181.602)" fill="#208e37"/>
      </g>
      <g id="Group_689" data-name="Group 689" transform="translate(348.299 187.232)">
        <path id="Path_221" data-name="Path 221" d="M334.022,189.1l-1.924-1.9a22.359,22.359,0,0,1,5.894-4.29l1.215,2.415A19.721,19.721,0,0,0,334.022,189.1Z" transform="translate(-332.098 -182.914)" fill="#208e37"/>
      </g>
      <g id="Group_690" data-name="Group 690" transform="translate(341.871 194.773)">
        <path id="Path_222" data-name="Path 222" d="M331.234,199.525h-2.7A22.23,22.23,0,0,1,332.3,187.1l2.245,1.506A19.531,19.531,0,0,0,331.234,199.525Z" transform="translate(-328.531 -187.099)" fill="#208e37"/>
      </g>
      <g id="Group_740" data-name="Group 740" transform="translate(312.307 209.085)">
        <g id="Group_691" data-name="Group 691" transform="translate(1.352 5.577)">
          <rect id="Rectangle_292" data-name="Rectangle 292" width="54.779" height="40.278" rx="1.804" fill="#fff"/>
        </g>
        <g id="Group_692" data-name="Group 692" transform="translate(0 4.226)">
          <path id="Path_223" data-name="Path 223" d="M365,240.367H316.728a4.608,4.608,0,0,1-4.6-4.6V201.989a4.608,4.608,0,0,1,4.6-4.6H365a4.607,4.607,0,0,1,4.6,4.6v33.776A4.607,4.607,0,0,1,365,240.367ZM316.728,200.09a1.9,1.9,0,0,0-1.9,1.9v33.776a1.9,1.9,0,0,0,1.9,1.9H365a1.9,1.9,0,0,0,1.9-1.9V201.989a1.9,1.9,0,0,0-1.9-1.9Z" transform="translate(-312.124 -197.387)" fill="#208e37"/>
        </g>
        <g id="Group_700" data-name="Group 700" transform="translate(11.099 13.981)">
          <g id="Group_693" data-name="Group 693">
            <rect id="Rectangle_293" data-name="Rectangle 293" width="2.52" height="2.703" fill="#208e37"/>
          </g>
          <g id="Group_694" data-name="Group 694" transform="translate(5.569)">
            <rect id="Rectangle_294" data-name="Rectangle 294" width="2.522" height="2.703" fill="#208e37"/>
          </g>
          <g id="Group_695" data-name="Group 695" transform="translate(11.141)">
            <rect id="Rectangle_295" data-name="Rectangle 295" width="2.52" height="2.703" fill="#208e37"/>
          </g>
          <g id="Group_696" data-name="Group 696" transform="translate(16.71)">
            <rect id="Rectangle_296" data-name="Rectangle 296" width="2.522" height="2.703" fill="#208e37"/>
          </g>
          <g id="Group_697" data-name="Group 697" transform="translate(22.281)">
            <rect id="Rectangle_297" data-name="Rectangle 297" width="2.52" height="2.703" fill="#208e37"/>
          </g>
          <g id="Group_698" data-name="Group 698" transform="translate(27.851)">
            <rect id="Rectangle_298" data-name="Rectangle 298" width="2.522" height="2.703" fill="#208e37"/>
          </g>
          <g id="Group_699" data-name="Group 699" transform="translate(33.422)">
            <rect id="Rectangle_299" data-name="Rectangle 299" width="2.522" height="2.703" fill="#208e37"/>
          </g>
        </g>
        <g id="Group_708" data-name="Group 708" transform="translate(11.099 19.806)">
          <g id="Group_701" data-name="Group 701">
            <rect id="Rectangle_300" data-name="Rectangle 300" width="2.52" height="2.703" fill="#208e37"/>
          </g>
          <g id="Group_702" data-name="Group 702" transform="translate(5.569)">
            <rect id="Rectangle_301" data-name="Rectangle 301" width="2.522" height="2.703" fill="#208e37"/>
          </g>
          <g id="Group_703" data-name="Group 703" transform="translate(11.141)">
            <rect id="Rectangle_302" data-name="Rectangle 302" width="2.52" height="2.703" fill="#208e37"/>
          </g>
          <g id="Group_704" data-name="Group 704" transform="translate(16.71)">
            <rect id="Rectangle_303" data-name="Rectangle 303" width="2.522" height="2.703" fill="#208e37"/>
          </g>
          <g id="Group_705" data-name="Group 705" transform="translate(22.281)">
            <rect id="Rectangle_304" data-name="Rectangle 304" width="2.52" height="2.703" fill="#208e37"/>
          </g>
          <g id="Group_706" data-name="Group 706" transform="translate(27.851)">
            <rect id="Rectangle_305" data-name="Rectangle 305" width="2.522" height="2.703" fill="#208e37"/>
          </g>
          <g id="Group_707" data-name="Group 707" transform="translate(33.422)">
            <rect id="Rectangle_306" data-name="Rectangle 306" width="2.522" height="2.703" fill="#208e37"/>
          </g>
        </g>
        <g id="Group_716" data-name="Group 716" transform="translate(11.099 25.63)">
          <g id="Group_709" data-name="Group 709">
            <rect id="Rectangle_307" data-name="Rectangle 307" width="2.52" height="2.703" fill="#208e37"/>
          </g>
          <g id="Group_710" data-name="Group 710" transform="translate(5.569)">
            <rect id="Rectangle_308" data-name="Rectangle 308" width="2.522" height="2.703" fill="#208e37"/>
          </g>
          <g id="Group_711" data-name="Group 711" transform="translate(11.141)">
            <rect id="Rectangle_309" data-name="Rectangle 309" width="2.52" height="2.703" fill="#208e37"/>
          </g>
          <g id="Group_712" data-name="Group 712" transform="translate(16.71)">
            <rect id="Rectangle_310" data-name="Rectangle 310" width="2.522" height="2.703" fill="#208e37"/>
          </g>
          <g id="Group_713" data-name="Group 713" transform="translate(22.281)">
            <rect id="Rectangle_311" data-name="Rectangle 311" width="2.52" height="2.703" fill="#208e37"/>
          </g>
          <g id="Group_714" data-name="Group 714" transform="translate(27.851)">
            <rect id="Rectangle_312" data-name="Rectangle 312" width="2.522" height="2.703" fill="#208e37"/>
          </g>
          <g id="Group_715" data-name="Group 715" transform="translate(33.422)">
            <rect id="Rectangle_313" data-name="Rectangle 313" width="2.522" height="2.703" fill="#208e37"/>
          </g>
        </g>
        <g id="Group_724" data-name="Group 724" transform="translate(11.099 31.456)">
          <g id="Group_717" data-name="Group 717">
            <rect id="Rectangle_314" data-name="Rectangle 314" width="2.52" height="2.703" fill="#208e37"/>
          </g>
          <g id="Group_718" data-name="Group 718" transform="translate(5.569)">
            <rect id="Rectangle_315" data-name="Rectangle 315" width="2.522" height="2.703" fill="#208e37"/>
          </g>
          <g id="Group_719" data-name="Group 719" transform="translate(11.141)">
            <rect id="Rectangle_316" data-name="Rectangle 316" width="2.52" height="2.703" fill="#208e37"/>
          </g>
          <g id="Group_720" data-name="Group 720" transform="translate(16.71)">
            <rect id="Rectangle_317" data-name="Rectangle 317" width="2.522" height="2.703" fill="#208e37"/>
          </g>
          <g id="Group_721" data-name="Group 721" transform="translate(22.281)">
            <rect id="Rectangle_318" data-name="Rectangle 318" width="2.52" height="2.703" fill="#208e37"/>
          </g>
          <g id="Group_722" data-name="Group 722" transform="translate(27.851)">
            <rect id="Rectangle_319" data-name="Rectangle 319" width="2.522" height="2.703" fill="#208e37"/>
          </g>
          <g id="Group_723" data-name="Group 723" transform="translate(33.422)">
            <rect id="Rectangle_320" data-name="Rectangle 320" width="2.522" height="2.703" fill="#208e37"/>
          </g>
        </g>
        <g id="Group_732" data-name="Group 732" transform="translate(11.099 37.281)">
          <g id="Group_725" data-name="Group 725">
            <rect id="Rectangle_321" data-name="Rectangle 321" width="2.52" height="2.703" fill="#208e37"/>
          </g>
          <g id="Group_726" data-name="Group 726" transform="translate(5.569)">
            <rect id="Rectangle_322" data-name="Rectangle 322" width="2.522" height="2.703" fill="#208e37"/>
          </g>
          <g id="Group_727" data-name="Group 727" transform="translate(11.141)">
            <rect id="Rectangle_323" data-name="Rectangle 323" width="2.52" height="2.703" fill="#208e37"/>
          </g>
          <g id="Group_728" data-name="Group 728" transform="translate(16.71)">
            <rect id="Rectangle_324" data-name="Rectangle 324" width="2.522" height="2.703" fill="#208e37"/>
          </g>
          <g id="Group_729" data-name="Group 729" transform="translate(22.281)">
            <rect id="Rectangle_325" data-name="Rectangle 325" width="2.52" height="2.703" fill="#208e37"/>
          </g>
          <g id="Group_730" data-name="Group 730" transform="translate(27.851)">
            <rect id="Rectangle_326" data-name="Rectangle 326" width="2.522" height="2.703" fill="#208e37"/>
          </g>
          <g id="Group_731" data-name="Group 731" transform="translate(33.422)">
            <rect id="Rectangle_327" data-name="Rectangle 327" width="2.522" height="2.703" fill="#208e37"/>
          </g>
        </g>
        <g id="Group_733" data-name="Group 733" transform="translate(8.777)">
          <rect id="Rectangle_328" data-name="Rectangle 328" width="2.703" height="8.799" fill="#208e37"/>
        </g>
        <g id="Group_734" data-name="Group 734" transform="translate(14.861)">
          <rect id="Rectangle_329" data-name="Rectangle 329" width="2.703" height="8.799" fill="#208e37"/>
        </g>
        <g id="Group_735" data-name="Group 735" transform="translate(20.944)">
          <rect id="Rectangle_330" data-name="Rectangle 330" width="2.703" height="8.799" fill="#208e37"/>
        </g>
        <g id="Group_736" data-name="Group 736" transform="translate(27.026)">
          <rect id="Rectangle_331" data-name="Rectangle 331" width="2.703" height="8.799" fill="#208e37"/>
        </g>
        <g id="Group_737" data-name="Group 737" transform="translate(33.109)">
          <rect id="Rectangle_332" data-name="Rectangle 332" width="2.703" height="8.799" fill="#208e37"/>
        </g>
        <g id="Group_738" data-name="Group 738" transform="translate(39.192)">
          <rect id="Rectangle_333" data-name="Rectangle 333" width="2.703" height="8.799" fill="#208e37"/>
        </g>
        <g id="Group_739" data-name="Group 739" transform="translate(45.276)">
          <rect id="Rectangle_334" data-name="Rectangle 334" width="2.703" height="8.799" fill="#208e37"/>
        </g>
      </g>
      <g id="Group_741" data-name="Group 741" transform="translate(362.851 188.022)">
        <rect id="Rectangle_335" data-name="Rectangle 335" width="2.703" height="3.645" fill="#208e37"/>
      </g>
      <g id="Group_742" data-name="Group 742" transform="translate(370.81 189.923)">
        <rect id="Rectangle_336" data-name="Rectangle 336" width="3.646" height="2.704" transform="translate(0 3.155) rotate(-59.933)" fill="#208e37"/>
      </g>
      <g id="Group_743" data-name="Group 743" transform="translate(376.994 196.472)">
        <rect id="Rectangle_337" data-name="Rectangle 337" width="3.645" height="2.704" transform="translate(0 1.817) rotate(-29.9)" fill="#208e37"/>
      </g>
      <g id="Group_744" data-name="Group 744" transform="translate(379.728 205.895)">
        <rect id="Rectangle_338" data-name="Rectangle 338" width="2.703" height="3.646" transform="translate(0 2.703) rotate(-89.822)" fill="#208e37"/>
      </g>
      <g id="Group_745" data-name="Group 745" transform="translate(376.94 213.852)">
        <rect id="Rectangle_339" data-name="Rectangle 339" width="2.703" height="3.646" transform="matrix(0.503, -0.864, 0.864, 0.503, 0, 2.336)" fill="#208e37"/>
      </g>
      <g id="Group_746" data-name="Group 746" transform="translate(370.724 220.019)">
        <rect id="Rectangle_340" data-name="Rectangle 340" width="2.702" height="3.646" transform="matrix(0.869, -0.496, 0.496, 0.869, 0, 1.339)" fill="#208e37"/>
      </g>
      <g id="Group_747" data-name="Group 747" transform="translate(345.013 205.668)">
        <rect id="Rectangle_341" data-name="Rectangle 341" width="2.703" height="3.646" transform="translate(0 2.703) rotate(-89.459)" fill="#208e37"/>
      </g>
      <g id="Group_748" data-name="Group 748" transform="translate(347.007 196.276)">
        <rect id="Rectangle_342" data-name="Rectangle 342" width="2.703" height="3.645" transform="matrix(0.509, -0.861, 0.861, 0.509, 0, 2.326)" fill="#208e37"/>
      </g>
      <g id="Group_749" data-name="Group 749" transform="translate(353.625 189.821)">
        <rect id="Rectangle_343" data-name="Rectangle 343" width="2.702" height="3.646" transform="translate(0 1.325) rotate(-29.361)" fill="#208e37"/>
      </g>
      <g id="Group_750" data-name="Group 750" transform="translate(335.84 190.789)">
        <path id="Path_224" data-name="Path 224" d="M327.964,186.277a1.39,1.39,0,1,1-1.391-1.389A1.39,1.39,0,0,1,327.964,186.277Z" transform="translate(-325.184 -184.888)" fill="#96d2a3"/>
      </g>
      <g id="Group_751" data-name="Group 751" transform="translate(311.896 197.222)">
        <path id="Path_225" data-name="Path 225" d="M315.421,190.218a1.762,1.762,0,1,1-1.762-1.76A1.763,1.763,0,0,1,315.421,190.218Z" transform="translate(-311.896 -188.458)" fill="#96d2a3"/>
      </g>
      <g id="Group_752" data-name="Group 752" transform="translate(325.921 200.429)">
        <path id="Path_226" data-name="Path 226" d="M323.211,192a1.766,1.766,0,1,1-1.766-1.766A1.766,1.766,0,0,1,323.211,192Z" transform="translate(-319.679 -190.238)" fill="#96d2a3"/>
      </g>
      <g id="Group_753" data-name="Group 753" transform="translate(320.67 182.055)">
        <path id="Path_227" data-name="Path 227" d="M322.576,182.948a2.906,2.906,0,1,1-2.906-2.907A2.906,2.906,0,0,1,322.576,182.948Z" transform="translate(-316.765 -180.041)" fill="#96d2a3"/>
      </g>
      <g id="Group_754" data-name="Group 754" transform="translate(362.851 194.357)">
        <path id="Path_228" data-name="Path 228" d="M340.173,199.769l.558-12.9h1.587l.558,12.9Z" transform="translate(-340.173 -186.868)" fill="#208e37"/>
      </g>
      <g id="Group_755" data-name="Group 755" transform="translate(364.167 205.907)">
        <path id="Path_229" data-name="Path 229" d="M340.9,193.278l11.37.265.041,1.587-11.341.85Z" transform="translate(-340.904 -193.278)" fill="#208e37"/>
      </g>
    </g>
  </g>
</svg>
