<svg xmlns="http://www.w3.org/2000/svg" width="103" height="103" viewBox="0 0 103 103">
  <g id="Group_839" data-name="Group 839" transform="translate(-1167 -2206)">
    <rect id="Rectangle_291" data-name="Rectangle 291" width="103" height="103" rx="8" transform="translate(1167 2206)" fill="#838a96" opacity="0.16"/>
    <g id="Group_684" data-name="Group 684" transform="translate(1029.867 2123.142)">
      <g id="Group_14" data-name="Group 14" transform="translate(166.184 169.435)">
        <path id="Path_19" data-name="Path 19" d="M200.072,145.631l2.038-11.674a3.82,3.82,0,0,0-3.763-4.476h-39.4a3.82,3.82,0,0,0-3.763,4.476l2.04,11.674Z" transform="translate(-155.131 -129.48)" fill="#fff"/>
      </g>
      <g id="Group_15" data-name="Group 15" transform="translate(164.555 167.851)">
        <path id="Path_20" data-name="Path 20" d="M202.488,146.737l-3.119-.545,2.088-11.964A1.99,1.99,0,0,0,199.5,131.9H159.517a1.993,1.993,0,0,0-1.962,2.331l2.088,11.964-3.119.545-2.088-11.964a5.159,5.159,0,0,1,5.08-6.043H199.5a5.159,5.159,0,0,1,5.082,6.043Z" transform="translate(-154.359 -128.73)" fill="#208e37"/>
      </g>
      <g id="Group_16" data-name="Group 16" transform="translate(188.088 134.754)">
        <rect id="Rectangle_63" data-name="Rectangle 63" width="3.167" height="35.803" fill="#208e37"/>
      </g>
      <g id="Group_17" data-name="Group 17" transform="translate(166.648 96.8)">
        <circle id="Ellipse_8" data-name="Ellipse 8" cx="19.177" cy="19.177" r="19.177" transform="matrix(0.973, -0.231, 0.231, 0.973, 0, 8.846)" fill="#e2f1e5"/>
      </g>
      <g id="Group_18" data-name="Group 18" transform="translate(168.97 99.123)">
        <path id="Path_21" data-name="Path 21" d="M177.21,137.7a20.76,20.76,0,1,1,6.379-40.521l-.973,3.015a17.6,17.6,0,1,0,9.489,7.377l2.679-1.689A20.762,20.762,0,0,1,177.21,137.7Z" transform="translate(-156.45 -96.18)" fill="#208e37"/>
      </g>
      <g id="Group_19" data-name="Group 19" transform="translate(198.277 101.735)">
        <path id="Path_22" data-name="Path 22" d="M173.687,102.611a17.672,17.672,0,0,0-3.357-2.428l1.539-2.766a20.752,20.752,0,0,1,3.961,2.861Z" transform="translate(-170.33 -97.417)" fill="#208e37"/>
      </g>
      <g id="Group_20" data-name="Group 20" transform="translate(218.695 106.695)">
        <path id="Path_23" data-name="Path 23" d="M184.776,102.154a2.388,2.388,0,1,1-2.388-2.388A2.389,2.389,0,0,1,184.776,102.154Z" transform="translate(-180 -99.766)" fill="#96d2a3"/>
      </g>
      <g id="Group_21" data-name="Group 21" transform="translate(152.756 127.134)">
        <path id="Path_24" data-name="Path 24" d="M153.549,111.834a2.389,2.389,0,1,1-2.388-2.388A2.388,2.388,0,0,1,153.549,111.834Z" transform="translate(-148.771 -109.446)" fill="#96d2a3"/>
      </g>
      <g id="Group_22" data-name="Group 22" transform="translate(227.422 93.532)">
        <circle id="Ellipse_9" data-name="Ellipse 9" cx="2.33" cy="2.33" r="2.33" fill="#96d2a3"/>
      </g>
      <g id="Group_23" data-name="Group 23" transform="translate(145.186 102.11)">
        <circle id="Ellipse_10" data-name="Ellipse 10" cx="2.33" cy="2.33" r="2.33" fill="#96d2a3"/>
      </g>
      <g id="Group_24" data-name="Group 24" transform="translate(208.734 96.467)">
        <circle id="Ellipse_11" data-name="Ellipse 11" cx="1.486" cy="1.486" r="1.486" fill="#96d2a3"/>
      </g>
      <g id="Group_25" data-name="Group 25" transform="translate(163.974 101.631)">
        <path id="Path_25" data-name="Path 25" d="M157.057,98.854a1.486,1.486,0,1,1-1.487-1.486A1.486,1.486,0,0,1,157.057,98.854Z" transform="translate(-154.084 -97.368)" fill="#96d2a3"/>
      </g>
      <g id="Group_28" data-name="Group 28" transform="translate(182.051 106.617)">
        <g id="Group_26" data-name="Group 26" transform="translate(0 4.42)">
          <path id="Path_26" data-name="Path 26" d="M172.419,119.513h-9.774v-3.167h9.774a2.047,2.047,0,1,0,0-4.094h-3.908a5.214,5.214,0,1,1,0-10.429h9.5v3.167h-9.5a2.047,2.047,0,1,0,0,4.094h3.908a5.214,5.214,0,1,1,0,10.429Z" transform="translate(-162.645 -101.823)" fill="#208e37"/>
        </g>
        <g id="Group_27" data-name="Group 27" transform="translate(6.096)">
          <rect id="Rectangle_64" data-name="Rectangle 64" width="3.167" height="26.532" fill="#208e37"/>
        </g>
      </g>
      <g id="Group_29" data-name="Group 29" transform="translate(192.236 141.626)">
        <path id="Path_27" data-name="Path 27" d="M187.514,116.34s.716,9.677-4.812,15.2-15.2,4.812-15.2,4.812-.716-9.677,4.81-15.2S187.514,116.34,187.514,116.34Z" transform="translate(-167.469 -116.31)" fill="#96d2a3"/>
      </g>
      <g id="Group_30" data-name="Group 30" transform="translate(190.648 140.039)">
        <path id="Path_28" data-name="Path 28" d="M169.483,138.808c-.726,0-1.182-.03-1.267-.036l-1.362-.1-.1-1.362c-.03-.424-.7-10.469,5.272-16.44s16.018-5.306,16.442-5.272l1.362.1.1,1.362c.032.424.7,10.469-5.27,16.44C179.863,138.294,172.444,138.808,169.483,138.808Zm17.306-20.07c-2.749.055-8.788.631-12.525,4.369s-4.314,9.776-4.369,12.525c2.749-.057,8.786-.633,12.523-4.371S186.732,121.485,186.789,118.738Z" transform="translate(-166.717 -115.558)" fill="#208e37"/>
      </g>
      <g id="Group_31" data-name="Group 31" transform="translate(167.713 141.626)">
        <path id="Path_29" data-name="Path 29" d="M175.9,136.357s.716-9.677-4.812-15.2-15.2-4.812-15.2-4.812-.716,9.677,4.812,15.2S175.9,136.357,175.9,136.357Z" transform="translate(-155.855 -116.31)" fill="#96d2a3"/>
      </g>
      <g id="Group_32" data-name="Group 32" transform="translate(166.127 140.039)">
        <path id="Path_30" data-name="Path 30" d="M175.586,138.808c-2.958,0-10.38-.513-15.173-5.308-5.971-5.971-5.3-16.016-5.272-16.44l.1-1.362,1.362-.1c.422-.034,10.469-.7,16.44,5.272s5.3,16.016,5.272,16.44l-.1,1.362-1.362.1C176.768,138.778,176.31,138.808,175.586,138.808Zm-17.306-20.07c.057,2.747.633,8.786,4.371,12.523s9.774,4.314,12.523,4.371c-.057-2.749-.631-8.788-4.369-12.525S161.032,118.793,158.28,118.738Z" transform="translate(-155.103 -115.558)" fill="#208e37"/>
      </g>
    </g>
  </g>
</svg>
