<svg xmlns="http://www.w3.org/2000/svg" width="103" height="103" viewBox="0 0 103 103">
  <g id="Group_837" data-name="Group 837" transform="translate(-597 -2206)">
    <rect id="Rectangle_288" data-name="Rectangle 288" width="103" height="103" rx="8" transform="translate(597 2206)" fill="#838a96" opacity="0.16"/>
    <g id="Group_552" data-name="Group 552" transform="translate(383.148 1796.172)">
      <g id="Group_521" data-name="Group 521" transform="translate(258.225 454.958)">
        <circle id="Ellipse_43" data-name="Ellipse 43" cx="17.548" cy="17.548" r="17.548" transform="translate(0 34.833) rotate(-82.967)" fill="#e2f1e5"/>
      </g>
      <g id="Group_522" data-name="Group 522" transform="translate(277.788 455.443)">
        <path id="Path_161" data-name="Path 161" d="M252.826,478.227v-3.062a16.018,16.018,0,1,0,0-32.037v-3.062a19.08,19.08,0,1,1,0,38.161Z" transform="translate(-252.826 -440.066)" fill="#208e37"/>
      </g>
      <g id="Group_523" data-name="Group 523" transform="translate(287.611 440.85)">
        <path id="Path_162" data-name="Path 162" d="M261.059,434.628a1.711,1.711,0,1,1-1.711-1.711A1.71,1.71,0,0,1,261.059,434.628Z" transform="translate(-257.638 -432.917)" fill="#96d2a3"/>
      </g>
      <g id="Group_524" data-name="Group 524" transform="translate(306.084 449.831)">
        <path id="Path_163" data-name="Path 163" d="M270.824,439.385a2.068,2.068,0,1,1-2.068-2.068A2.069,2.069,0,0,1,270.824,439.385Z" transform="translate(-266.688 -437.317)" fill="#96d2a3"/>
      </g>
      <g id="Group_525" data-name="Group 525" transform="translate(276.887 426.338)">
        <circle id="Ellipse_44" data-name="Ellipse 44" cx="2.252" cy="2.252" r="2.252" fill="#96d2a3"/>
      </g>
      <g id="Group_526" data-name="Group 526" transform="translate(301.889 428.562)">
        <path id="Path_164" data-name="Path 164" d="M271.489,430.326a3.428,3.428,0,1,1-3.427-3.429A3.428,3.428,0,0,1,271.489,430.326Z" transform="translate(-264.633 -426.897)" fill="#96d2a3"/>
      </g>
      <g id="Group_529" data-name="Group 529" transform="translate(270.762 462.385)">
        <g id="Group_527" data-name="Group 527" transform="translate(0 3.962)">
          <path id="Path_165" data-name="Path 165" d="M258.329,461.76h-8.945V458.7h8.945a1.792,1.792,0,0,0,0-3.584H254.75a4.853,4.853,0,1,1,0-9.706h8.687v3.062H254.75a1.791,1.791,0,1,0,0,3.582h3.578a4.854,4.854,0,0,1,0,9.708Z" transform="translate(-249.384 -445.408)" fill="#208e37"/>
        </g>
        <g id="Group_528" data-name="Group 528" transform="translate(5.495)">
          <rect id="Rectangle_209" data-name="Rectangle 209" width="3.062" height="24.277" fill="#208e37"/>
        </g>
      </g>
      <g id="Group_530" data-name="Group 530" transform="translate(289.561 447.854)">
        <rect id="Rectangle_210" data-name="Rectangle 210" width="8.44" height="3.061" transform="translate(0 7.289) rotate(-59.726)" fill="#208e37"/>
      </g>
      <g id="Group_531" data-name="Group 531" transform="translate(298.337 460.249)">
        <rect id="Rectangle_211" data-name="Rectangle 211" width="4.221" height="3.062" transform="matrix(0.871, -0.491, 0.491, 0.871, 0, 2.072)" fill="#208e37"/>
      </g>
      <g id="Group_532" data-name="Group 532" transform="translate(278.949 446.338)">
        <rect id="Rectangle_212" data-name="Rectangle 212" width="4.25" height="3.06" transform="translate(0 4.208) rotate(-81.914)" fill="#208e37"/>
      </g>
      <g id="Group_533" data-name="Group 533" transform="translate(279.626 497.923)">
        <rect id="Rectangle_213" data-name="Rectangle 213" width="3.061" height="4.219" transform="translate(0 0.552) rotate(-10.396)" fill="#208e37"/>
      </g>
      <g id="Group_534" data-name="Group 534" transform="translate(301.838 473.055)">
        <rect id="Rectangle_214" data-name="Rectangle 214" width="3.062" height="8.441" transform="translate(0 3.062) rotate(-89.092)" fill="#208e37"/>
      </g>
      <g id="Group_535" data-name="Group 535" transform="translate(297.866 484.168)">
        <rect id="Rectangle_215" data-name="Rectangle 215" width="3.063" height="3.808" transform="matrix(0.574, -0.819, 0.819, 0.574, 0, 2.507)" fill="#208e37"/>
      </g>
      <g id="Group_536" data-name="Group 536" transform="translate(289.237 492.476)">
        <rect id="Rectangle_216" data-name="Rectangle 216" width="3.061" height="8.44" transform="translate(0 1.46) rotate(-28.495)" fill="#208e37"/>
      </g>
      <g id="Group_551" data-name="Group 551" transform="translate(228.852 425.298)">
        <g id="Group_537" data-name="Group 537" transform="translate(5.896 1.682)">
          <path id="Path_166" data-name="Path 166" d="M236.614,464.573h-.659c-1.09,0-1.974-.884-1.974-6.056l-1.97-16.328a6.378,6.378,0,0,1,3.143-6.263c.917-.535,1.639-1.023,1.639-1.023-6.348-3.954-4.958-8.267-4.852-8.781l.027.006c3.08,4.519,19.514,2.423,29.106,3.886a5.181,5.181,0,0,1,4.385,4.45l.233,1.8h0a3.41,3.41,0,0,1,3.409,3.409L266.483,462.6a1.974,1.974,0,0,1-1.974,1.974Z" transform="translate(-231.741 -426.122)" fill="#e2f1e5"/>
        </g>
        <g id="Group_538" data-name="Group 538" transform="translate(4.369)">
          <path id="Path_167" data-name="Path 167" d="M265.288,466.961H236.734c-3.5,0-3.5-4.936-3.5-7.587l-1.96-16.144a7.9,7.9,0,0,1,3.552-7.555c-4.135-3.413-4.084-6.991-3.611-8.959l.341-1.419,1.988.331.471.494c1.56,2.286,9.661,2.435,16.171,2.554a96.549,96.549,0,0,1,11.9.682,6.755,6.755,0,0,1,5.668,5.764l.086.659a4.946,4.946,0,0,1,3.568,4.746l-2.625,23.1A3.46,3.46,0,0,1,265.288,466.961ZM234.331,430a8.954,8.954,0,0,0,4.05,4.458l2,1.245-1.951,1.323s-.759.514-1.725,1.078a4.851,4.851,0,0,0-2.394,4.756l1.968,16.328c.012,4.038.533,4.725.594,4.791l.518-.082h27.9a.444.444,0,0,0,.443-.443l2.625-23.1a1.87,1.87,0,0,0-1.886-1.7h-1.347l-.4-3.133a3.635,3.635,0,0,0-3.1-3.131,94.129,94.129,0,0,0-11.5-.647C243.684,431.622,237.895,431.516,234.331,430Z" transform="translate(-230.992 -425.298)" fill="#208e37"/>
        </g>
        <g id="Group_539" data-name="Group 539" transform="translate(40.761 28.889)">
          <path id="Path_168" data-name="Path 168" d="M253.177,443.735a2.179,2.179,0,0,1-2.18,2.176h0a2.177,2.177,0,0,1-2.176-2.176v-2.109A2.177,2.177,0,0,1,251,439.451h0a2.179,2.179,0,0,1,2.18,2.176Z" transform="translate(-248.821 -439.451)" fill="#fff"/>
        </g>
        <g id="Group_540" data-name="Group 540" transform="translate(39.23 27.358)">
          <path id="Path_169" data-name="Path 169" d="M251.78,448.223a3.711,3.711,0,0,1-3.709-3.7v-2.111a3.708,3.708,0,0,1,7.416,0v2.111A3.709,3.709,0,0,1,251.78,448.223Zm0-6.46a.647.647,0,0,0-.647.645v2.111a.647.647,0,0,0,1.294,0v-2.111A.648.648,0,0,0,251.78,441.763Z" transform="translate(-248.071 -438.701)" fill="#208e37"/>
        </g>
        <g id="Group_541" data-name="Group 541" transform="translate(3.882 28.889)">
          <path id="Path_170" data-name="Path 170" d="M235.11,443.735a2.179,2.179,0,0,1-2.18,2.176h0a2.177,2.177,0,0,1-2.176-2.176v-2.109a2.177,2.177,0,0,1,2.176-2.176h0a2.179,2.179,0,0,1,2.18,2.176Z" transform="translate(-230.754 -439.451)" fill="#fff"/>
        </g>
        <g id="Group_542" data-name="Group 542" transform="translate(2.351 27.358)">
          <path id="Path_171" data-name="Path 171" d="M233.711,448.223a3.71,3.71,0,0,1-3.707-3.7v-2.111a3.709,3.709,0,0,1,7.418,0v2.111A3.712,3.712,0,0,1,233.711,448.223Zm0-6.46a.646.646,0,0,0-.645.645v2.111a.647.647,0,0,0,1.294,0v-2.111A.649.649,0,0,0,233.711,441.763Z" transform="translate(-230.004 -438.701)" fill="#208e37"/>
        </g>
        <g id="Group_543" data-name="Group 543" transform="translate(1.531 53.227)">
          <path id="Path_172" data-name="Path 172" d="M276.107,485.677V471.325c0-10.974-10.465-19.951-23.254-19.951h0c-12.788,0-23.252,8.977-23.252,19.951v14.352Z" transform="translate(-229.602 -451.374)" fill="#96d2a3"/>
        </g>
        <g id="Group_544" data-name="Group 544" transform="translate(0 51.696)">
          <path id="Path_173" data-name="Path 173" d="M278.419,486.458h-3.062V472.1c0-10.155-9.745-18.418-21.723-18.418s-21.721,8.263-21.721,18.418v14.354h-3.062V472.1c0-11.843,11.117-21.48,24.782-21.48s24.785,9.637,24.785,21.48Z" transform="translate(-228.852 -450.624)" fill="#208e37"/>
        </g>
        <g id="Group_545" data-name="Group 545" transform="translate(13.161 71.793)">
          <rect id="Rectangle_217" data-name="Rectangle 217" width="3.062" height="15.736" fill="#208e37"/>
        </g>
        <g id="Group_546" data-name="Group 546" transform="translate(33.521 71.793)">
          <rect id="Rectangle_218" data-name="Rectangle 218" width="3.062" height="15.736" fill="#208e37"/>
        </g>
        <g id="Group_547" data-name="Group 547" transform="translate(19.596 43.407)">
          <path id="Path_174" data-name="Path 174" d="M242.8,464.45h0a4.35,4.35,0,0,1-4.35-4.35v-9.806a3.732,3.732,0,0,1,3.731-3.731h1.235a3.732,3.732,0,0,1,3.731,3.731V460.1A4.349,4.349,0,0,1,242.8,464.45Z" transform="translate(-238.452 -446.563)" fill="#fff"/>
        </g>
        <g id="Group_548" data-name="Group 548" transform="translate(18.065 41.878)">
          <path id="Path_175" data-name="Path 175" d="M243.581,466.759a5.886,5.886,0,0,1-5.879-5.879v-9.8a5.268,5.268,0,0,1,5.262-5.262H244.2a5.267,5.267,0,0,1,5.262,5.262v9.8A5.886,5.886,0,0,1,243.581,466.759Zm-.616-17.883a2.2,2.2,0,0,0-2.2,2.2v9.8a2.818,2.818,0,0,0,5.636,0v-9.8a2.2,2.2,0,0,0-2.2-2.2Z" transform="translate(-237.702 -445.814)" fill="#208e37"/>
        </g>
        <g id="Group_549" data-name="Group 549" transform="translate(7.765 16.07)">
          <path id="Path_176" data-name="Path 176" d="M249.194,469.813h0a16.587,16.587,0,0,1-16.538-16.54V442.061c0-9.1,7.442-8.89,16.538-8.89h0c9.1,0,16.54-.206,16.54,8.89v11.212A16.588,16.588,0,0,1,249.194,469.813Z" transform="translate(-232.656 -433.171)" fill="#fff"/>
        </g>
        <g id="Group_550" data-name="Group 550" transform="translate(6.234 14.54)">
          <path id="Path_177" data-name="Path 177" d="M249.975,472.125a18.091,18.091,0,0,1-18.069-18.071V442.841c0-4.736,1.845-7.748,5.644-9.212,3.152-1.212,7.375-1.2,11.837-1.208h1.178c4.487,0,8.685,0,11.835,1.208,3.8,1.464,5.646,4.476,5.646,9.212v11.213A18.092,18.092,0,0,1,249.975,472.125Zm-1.149-36.642c-3.966,0-7.675.041-10.175,1-1.821.7-3.682,2.007-3.682,6.354v11.213a15.008,15.008,0,1,0,30.016,0V442.841c0-4.348-1.862-5.652-3.684-6.354-2.619-1.008-6.567-1.008-10.735-1h-1.739Z" transform="translate(-231.906 -432.421)" fill="#208e37"/>
        </g>
      </g>
    </g>
  </g>
</svg>
