<svg xmlns="http://www.w3.org/2000/svg" width="103" height="103" viewBox="0 0 103 103">
  <g id="Group_836" data-name="Group 836" transform="translate(-312 -2155)">
    <g id="Group_835" data-name="Group 835">
      <rect id="Rectangle_35" data-name="Rectangle 35" width="103" height="103" rx="8" transform="translate(312 2155)" fill="#838a96" opacity="0.16"/>
    </g>
    <g id="Group_680" data-name="Group 680" transform="translate(-67.075 1993.804)">
      <g id="Group_663" data-name="Group 663" transform="translate(445.924 237.946)">
        <path id="Path_207" data-name="Path 207" d="M425.124,215.212a1.113,1.113,0,1,1-1.112-1.114A1.113,1.113,0,0,1,425.124,215.212Z" transform="translate(-422.898 -214.098)" fill="#96d2a3"/>
      </g>
      <g id="Group_664" data-name="Group 664" transform="translate(398.449 238.934)">
        <path id="Path_208" data-name="Path 208" d="M398.361,215.769a1.113,1.113,0,1,1-1.112-1.114A1.113,1.113,0,0,1,398.361,215.769Z" transform="translate(-396.135 -214.655)" fill="#96d2a3"/>
      </g>
      <g id="Group_665" data-name="Group 665" transform="translate(441.39 246.36)">
        <circle id="Ellipse_61" data-name="Ellipse 61" cx="1.461" cy="1.461" r="1.461" fill="#96d2a3"/>
      </g>
      <g id="Group_666" data-name="Group 666" transform="translate(414.32 244.899)">
        <circle id="Ellipse_62" data-name="Ellipse 62" cx="1.461" cy="1.461" r="1.461" fill="#96d2a3"/>
      </g>
      <g id="Group_667" data-name="Group 667" transform="translate(455.527 235.843)">
        <circle id="Ellipse_63" data-name="Ellipse 63" cx="2.103" cy="2.103" r="2.103" fill="#96d2a3"/>
      </g>
      <g id="Group_668" data-name="Group 668" transform="translate(406.868 228.41)">
        <circle id="Ellipse_64" data-name="Ellipse 64" cx="1.892" cy="1.892" r="1.892" fill="#96d2a3"/>
      </g>
      <g id="Group_669" data-name="Group 669" transform="translate(394.477 184.613)">
        <path id="Path_209" data-name="Path 209" d="M462.376,203.014h-.3a11.009,11.009,0,0,0-16.529-6.2,15.08,15.08,0,0,0-29.3-2.169,10.311,10.311,0,0,0-12.918,8.371h-1.687a7.76,7.76,0,0,0-7.738,7.738v.569a7.761,7.761,0,0,0,7.738,7.738h60.742a7.761,7.761,0,0,0,7.738-7.738v-.569A7.76,7.76,0,0,0,462.376,203.014Z" transform="translate(-393.896 -184.033)" fill="#96d2a3"/>
      </g>
      <g id="Group_670" data-name="Group 670" transform="translate(395.471 188.763)">
        <path id="Path_210" data-name="Path 210" d="M454.826,203.1h-.268a9.7,9.7,0,0,0-14.571-5.467,13.295,13.295,0,0,0-25.835-1.912,9.092,9.092,0,0,0-11.387,7.379h-1.487a6.842,6.842,0,0,0-6.822,6.821v.5a6.843,6.843,0,0,0,6.822,6.821h53.547a6.841,6.841,0,0,0,6.821-6.821v-.5A6.84,6.84,0,0,0,454.826,203.1Z" transform="translate(-394.456 -186.372)" fill="#fff"/>
      </g>
      <g id="Group_671" data-name="Group 671" transform="translate(423.435 189.109)">
        <path id="Path_211" data-name="Path 211" d="M426.728,194.354a11.238,11.238,0,0,0-15.151-3.562L410.22,188.5a13.9,13.9,0,0,1,18.74,4.4Z" transform="translate(-410.22 -186.567)" fill="#208e37"/>
      </g>
      <g id="Group_672" data-name="Group 672" transform="translate(393.145 183.283)">
        <path id="Path_212" data-name="Path 212" d="M462.957,220.97h-9.263v-2.661h9.263a6.413,6.413,0,0,0,6.406-6.407v-.569a6.415,6.415,0,0,0-6.406-6.409h-1.3l-.28-.96a9.676,9.676,0,0,0-14.53-5.451l-1.722,1.105-.312-2.022a13.745,13.745,0,0,0-24.1-6.753,13.884,13.884,0,0,0-1.487,2.148,13.559,13.559,0,0,0-1.128,2.627l-.38,1.222-1.236-.332a8.966,8.966,0,0,0-11.259,7.294l-.177,1.121h-2.824a6.417,6.417,0,0,0-6.409,6.409v.569a6.415,6.415,0,0,0,6.409,6.407h8.841v2.661h-8.841a9.078,9.078,0,0,1-9.07-9.068v-.569a9.08,9.08,0,0,1,9.07-9.07h.607a11.622,11.622,0,0,1,13.132-8.586,16.38,16.38,0,0,1,2.716-4.548,16.41,16.41,0,0,1,28.39,6.251,12.34,12.34,0,0,1,16.559,6.908,9.079,9.079,0,0,1,8.4,9.045v.569A9.078,9.078,0,0,1,462.957,220.97Z" transform="translate(-393.145 -183.283)" fill="#208e37"/>
      </g>
      <g id="Group_673" data-name="Group 673" transform="translate(414.32 193.481)">
        <path id="Path_213" data-name="Path 213" d="M411.782,195.734h-2.661a4.044,4.044,0,0,0-4.039-4.041v-2.661A6.708,6.708,0,0,1,411.782,195.734Z" transform="translate(-405.082 -189.032)" fill="#208e37"/>
      </g>
      <g id="Group_674" data-name="Group 674" transform="translate(416.841 209.422)">
        <path id="Path_214" data-name="Path 214" d="M421.3,228.211a15.1,15.1,0,1,1,15.4-14.794A15.1,15.1,0,0,1,421.3,228.211Z" transform="translate(-406.503 -198.018)" fill="#e2f1e5"/>
      </g>
      <g id="Group_675" data-name="Group 675" transform="translate(415.511 208.093)">
        <path id="Path_215" data-name="Path 215" d="M422.186,230.125c-.112,0-.222,0-.332,0a16.429,16.429,0,0,1,.323-32.855l.332,0a16.441,16.441,0,0,1,15.206,21.784l-2.515-.867a13.767,13.767,0,1,0-5.921,7.31l1.375,2.278A16.365,16.365,0,0,1,422.186,230.125Z" transform="translate(-405.753 -197.269)" fill="#208e37"/>
      </g>
      <g id="Group_676" data-name="Group 676" transform="translate(441.89 231.446)">
        <path id="Path_216" data-name="Path 216" d="M422.547,214.862l-1.923-1.838a13.953,13.953,0,0,0,1.953-2.59l2.3,1.341A16.4,16.4,0,0,1,422.547,214.862Z" transform="translate(-420.624 -210.434)" fill="#208e37"/>
      </g>
      <g id="Group_679" data-name="Group 679" transform="translate(425.891 214.076)">
        <g id="Group_677" data-name="Group 677" transform="translate(0 3.397)">
          <path id="Path_217" data-name="Path 217" d="M419.3,216.652h-7.7v-2.661h7.7a1.528,1.528,0,1,0,0-3.056h-3.078a4.189,4.189,0,0,1,0-8.378H423.7v2.661h-7.475a1.528,1.528,0,0,0,0,3.056H419.3a4.189,4.189,0,1,1,0,8.378Z" transform="translate(-411.605 -202.557)" fill="#208e37"/>
        </g>
        <g id="Group_678" data-name="Group 678" transform="translate(4.718)">
          <rect id="Rectangle_287" data-name="Rectangle 287" width="2.661" height="20.888" fill="#208e37"/>
        </g>
      </g>
    </g>
  </g>
</svg>
