<svg xmlns="http://www.w3.org/2000/svg" width="29.25" height="29.25" viewBox="0 0 29.25 29.25">
  <g id="Group_835" data-name="Group 835" transform="translate(-3.375 -2.375)">
    <path id="Path_205" data-name="Path 205" d="M10.378,14.815a1.362,1.362,0,0,0,0,1.92l6.729,6.708a1.356,1.356,0,0,0,1.87.042l6.63-6.609a1.355,1.355,0,1,0-1.912-1.92L18,20.566l-5.7-5.759A1.356,1.356,0,0,0,10.378,14.815Z" transform="translate(0 -1)" fill="#208e37"/>
    <path id="Path_206" data-name="Path 206" d="M3.375,18A14.625,14.625,0,1,0,18,3.375,14.623,14.623,0,0,0,3.375,18ZM26.747,9.253A12.37,12.37,0,1,1,9.253,26.747,12.37,12.37,0,1,1,26.747,9.253Z" transform="translate(0 -1)" fill="#208e37"/>
  </g>
</svg>
