<svg xmlns="http://www.w3.org/2000/svg" width="13.632" height="12.393" viewBox="0 0 13.632 12.393">
  <path id="Union" d="M7.647,12.393H4.824l.009-8.285h2.72V5.236a2.858,2.858,0,0,1,1.138-1A3.214,3.214,0,0,1,10.119,3.9l.115,0a3.112,3.112,0,0,1,2.758,1.133,4.807,4.807,0,0,1,.64,2.8v4.536H10.809v-4c0-.978,0-2.2-1.468-2.2-1.493,0-1.694,1.071-1.694,2.118v4.09Zm-4.627-.017H.2V4.108H3.021v8.267Zm-1.383-9.4a1.789,1.789,0,0,1-.62-.11,1.613,1.613,0,0,1-.736-.544A1.385,1.385,0,0,1,0,1.495,1.362,1.362,0,0,1,.122.924,1.5,1.5,0,0,1,.476.438,1.651,1.651,0,0,1,1.008.114,1.788,1.788,0,0,1,1.637,0a1.753,1.753,0,0,1,.909.25,1.53,1.53,0,0,1,.6.666,1.359,1.359,0,0,1,.095.858,1.444,1.444,0,0,1-.446.761,1.679,1.679,0,0,1-.835.408A1.788,1.788,0,0,1,1.637,2.972Z" fill="#646464"/>
</svg>
