<svg xmlns="http://www.w3.org/2000/svg" width="61.41" height="66.976" viewBox="0 0 61.41 66.976">
  <g id="Group_842" data-name="Group 842" transform="translate(-260 -5732)">
    <g id="Group_13" data-name="Group 13" transform="translate(773.668 5627.493)">
      <path id="Path_14" data-name="Path 14" d="M-470.319,104.507V132.64h-5.911V111.579l-23.738,4.276v33.071c-1.968.126-3.943.189-5.911.146v-38.16Z" transform="translate(6.222)" fill="#208e37"/>
      <g id="Group_4" data-name="Group 4" transform="translate(-513.668 129.991)">
        <path id="Path_15" data-name="Path 15" d="M-513.668,138.847c20.439,2.281,40.97-2.558,61.41-.309v6.039c-20.468.138-40.941.07-61.41.207Z" transform="translate(513.668 -103.292)" fill="#208e37"/>
        <path id="Path_16" data-name="Path 16" d="M-513.668,132.488c20.261,4.634,41.148-4.744,61.41-.088v5.821c-20.29-3.834-41.12,4-61.41.221Z" transform="translate(513.668 -108.775)" fill="#208e37"/>
        <path id="Path_17" data-name="Path 17" d="M-466.418,131.728c-9.738-2.351-19.8-1.313-29.527-.126v-5.893c9.7-.979,19.817-1.822,29.527.165Z" transform="translate(527.827 -113.886)" fill="#208e37"/>
        <path id="Path_18" data-name="Path 18" d="M-466.418,124.784c-9.684-1.225-19.856-.739-29.527-.187v-5.9c4.861.032,9.871.016,14.879,0,4.927-.016,9.86-.034,14.649,0Z" transform="translate(527.827 -118.673)" fill="#208e37"/>
      </g>
    </g>
  </g>
</svg>
