<svg xmlns="http://www.w3.org/2000/svg" width="13.407" height="11.154" viewBox="0 0 13.407 11.154">
  <path id="Vector" d="M11.731,1.761A4.2,4.2,0,0,0,13.407,0a7.751,7.751,0,0,1-2.119.805A2.6,2.6,0,0,0,9.283,0,2.736,2.736,0,0,0,6.7,2.935V4.109C4.469,4.109,2.29,2.321.935.587A2.936,2.936,0,0,0,.562,2.029,3.763,3.763,0,0,0,2.235,4.7,5.015,5.015,0,0,1,.559,4.109v.033a2.591,2.591,0,0,0,2.185,2.6,3.356,3.356,0,0,1-1.587.306c.35,1.136,2.108,1.736,3.312,1.761A6.81,6.81,0,0,1,.559,9.98,3.918,3.918,0,0,1,0,9.966a8.359,8.359,0,0,0,4.469,1.188A7.7,7.7,0,0,0,12.29,3.305c0-.124,0-.541-.01-.663a4.411,4.411,0,0,0,1.127-1.4A6.045,6.045,0,0,1,11.731,1.761Z" fill="#646464"/>
</svg>
